<svg width="52" height="33" viewBox="0 0 52 33" fill="none" xmlns="http://www.w3.org/2000/svg">
<g clip-path="url(#clip0_1_6705)">
<path d="M25.7796 0.793974C22.5682 1.01205 19.6364 2.43427 17.7172 4.70509C16.4828 6.16523 15.692 7.79131 15.2122 9.86064C15.2002 9.9199 15.1785 9.95308 15.1592 9.94834C15.1423 9.9436 14.9904 9.91042 14.824 9.87249C14.3611 9.7682 13.9103 9.68997 13.4208 9.63309C13.0423 9.58805 12.8494 9.57857 12.1213 9.57857C11.0725 9.5762 10.5156 9.62597 9.64521 9.80375C6.60735 10.4224 4.02517 12.1006 2.33505 14.554C0.594311 17.0784 -0.0108503 20.25 0.659408 23.3267C1.37548 26.6334 3.50439 29.4968 6.48439 31.1679C6.84604 31.3694 7.09678 31.476 7.44396 31.5685L7.72123 31.6443L13.8621 31.6515L20.0005 31.6562L20.1403 31.6064C20.4103 31.5069 20.6321 31.2248 20.6683 30.9332C20.6876 30.791 20.6346 30.554 20.5574 30.4307C20.4923 30.3288 16.0151 25.7706 15.868 25.6568C15.6438 25.4814 15.8801 25.4932 12.307 25.4932H9.09791L8.86887 25.3226C8.22272 24.839 7.66337 24.1516 7.27278 23.3718C6.88943 22.599 6.71102 21.8998 6.67968 21.0488C6.60735 18.9795 7.67301 17.223 9.55359 16.3175C10.8869 15.6752 12.4805 15.5732 13.9054 16.0331C14.0983 16.0971 14.3756 16.2038 14.5227 16.2701L14.7903 16.3958L21.8111 23.7155C26.4161 28.5202 28.8874 31.0778 28.9935 31.1584C29.1912 31.303 29.4733 31.45 29.7023 31.5282C30.1026 31.6609 29.6758 31.6538 36.9811 31.6562C43.6524 31.6586 43.7223 31.6586 44.096 31.6112C45.5884 31.4192 46.9193 30.8763 48.0934 29.9827C48.6094 29.5916 49.2652 28.9089 49.6413 28.3732C50.7769 26.7614 51.1843 24.8106 50.7914 22.874C50.5623 21.7386 50.0271 20.4989 49.4267 19.7095C49.3737 19.6384 45.8175 15.8909 41.5259 11.3848L33.7239 3.19042L33.3984 2.95812C31.73 1.77057 29.7481 1.03812 27.6482 0.829529C27.1925 0.784492 26.2064 0.76553 25.7796 0.793974ZM27.272 6.99486C27.964 7.08968 28.6053 7.30301 29.2274 7.64908C29.3889 7.74153 29.5432 7.8482 29.6252 7.92879C29.6999 7.9999 33.056 11.5246 37.0872 15.7581C43.5535 22.5516 44.4239 23.476 44.4842 23.6017C44.6216 23.9003 44.6771 24.1966 44.6433 24.4479C44.5903 24.8248 44.26 25.1756 43.7778 25.3676C43.445 25.498 43.7657 25.4932 37.7261 25.4932L32.1447 25.4909L26.8646 19.9845L21.5845 14.4781L21.5146 14.279C21.4326 14.0396 21.3482 13.6769 21.2903 13.3095C21.2325 12.9374 21.2325 11.9229 21.2903 11.5483C21.5363 9.98153 22.2379 8.72523 23.2939 7.96671C24.1281 7.36701 25.0419 7.04227 26.1774 6.94745C26.3751 6.93086 27.002 6.95694 27.272 6.99486Z" fill="white"/>
</g>
<defs>
<clipPath id="clip0_1_6705">
<rect width="51.8742" height="32" fill="white" transform="translate(0 0.527344)"/>
</clipPath>
</defs>
</svg>
