<svg width="18" height="18" viewBox="0 0 18 18" fill="none" xmlns="http://www.w3.org/2000/svg">
<path d="M9.14704 11.3243C12.0537 11.3243 14.409 8.96892 14.409 6.06229C14.409 3.15566 12.0537 0.800293 9.14704 0.800293C6.24041 0.800293 3.88504 3.15566 3.88504 6.06229C3.88504 8.96892 6.24041 11.3243 9.14704 11.3243ZM9.14704 1.97082C11.404 1.97082 13.2403 3.80715 13.2403 6.06408C13.2403 8.32102 11.404 10.1556 9.14704 10.1556C6.89011 10.1556 5.05378 8.31923 5.05378 6.06229C5.05378 3.80715 6.89011 1.97082 9.14704 1.97082Z" fill="white"/>
<path d="M14.5647 11.5712V11.5909C14.5647 11.5909 14.0403 11.3081 13.77 11.7806C13.4783 12.2925 14.017 12.6022 14.017 12.6022L13.9991 12.5968C15.2215 13.2823 16.2864 14.3383 16.6319 15.9759H9.14695H1.66024C1.99672 14.34 3.03838 13.2841 4.23933 12.6004L4.23217 12.6022C4.23217 12.6022 4.7709 12.2925 4.47917 11.7806C4.23217 11.3493 3.77936 11.5462 3.7006 11.5838C1.91081 12.5825 0.376953 14.2756 0.376953 17.1482H9.14695H17.917C17.917 14.2613 16.367 12.5664 14.5647 11.5712Z" fill="white"/>
<path d="M9.97931 12.484C10.5001 11.607 9.51217 11.7448 9.67504 11.7197C9.15421 11.8003 9.14705 11.8056 9.14705 11.8056C9.14705 11.8056 9.1399 11.8021 8.61907 11.7197C8.78373 11.7448 7.79397 11.607 8.3148 12.484C8.3148 12.484 8.41503 12.6844 8.90901 12.7489C8.90901 12.7489 8.22352 13.9409 8.22352 14.17C8.22352 14.5261 8.90006 15.5069 9.14527 15.6161V13.7118V15.6179C9.39226 15.5087 10.067 14.5279 10.067 14.1717C10.067 13.9409 9.38152 12.7506 9.38152 12.7506C9.87729 12.6862 9.97931 12.484 9.97931 12.484Z" fill="white"/>
</svg>
