<svg width="48" height="48" viewBox="0 0 48 48" fill="none" xmlns="http://www.w3.org/2000/svg">
<path d="M24.0187 30.3046C26.8894 33.1753 30.2499 35.5995 34.7295 35.5995C37.7892 35.5995 40.6413 34.4184 42.7648 32.2762C44.8698 30.1527 46.0292 27.3192 46.0292 24.2998C46.0292 21.2772 44.876 18.4468 42.7834 16.3264C40.6661 14.1811 37.8047 13 34.7326 13C30.4607 13 27.2087 15.1886 24.431 17.8733C25.513 18.9521 26.5267 20.0961 27.5218 21.2214C28.3464 22.1545 29.1555 23.069 29.9492 23.8812C31.5705 22.2878 33.1546 21.1563 34.7295 21.1563C36.5213 21.1563 37.876 22.5079 37.876 24.3029C37.876 26.0947 36.5244 27.4494 34.7295 27.4494C33.0275 27.4494 31.3101 26.1102 29.5368 24.2967C28.7308 23.472 27.9155 22.5482 27.0847 21.612C26.1082 20.5084 25.0975 19.3675 24.0156 18.2887" fill="url(#paint0_radial_1_6812)"/>
<path d="M24.0167 18.2794C21.1429 15.415 17.7825 13 13.2998 13C7.06861 13 2 18.0686 2 24.2998C2 30.5309 7.06861 35.5995 13.2998 35.5995C17.5747 35.5995 20.8267 33.4047 23.6075 30.7138C22.538 29.6443 21.5335 28.5096 20.5477 27.3967C19.7138 26.4543 18.8923 25.5274 18.0894 24.7059C16.4649 26.3055 14.8777 27.4432 13.2998 27.4432C11.5668 27.4432 10.1532 26.0327 10.1532 24.2967C10.1532 22.5637 11.5637 21.1501 13.2998 21.1501C15.011 21.1501 16.7284 22.4831 18.4986 24.2905C19.3139 25.1244 20.1416 26.0575 20.9817 27.0061C21.9489 28.0973 22.9503 29.232 24.0229 30.3015" fill="url(#paint1_radial_1_6812)"/>
<defs>
<radialGradient id="paint0_radial_1_6812" cx="0" cy="0" r="1" gradientUnits="userSpaceOnUse" gradientTransform="translate(23.9863 24.2992) scale(21.7313)">
<stop stop-color="#00FFFF"/>
<stop offset="1" stop-color="#5495FC"/>
</radialGradient>
<radialGradient id="paint1_radial_1_6812" cx="0" cy="0" r="1" gradientUnits="userSpaceOnUse" gradientTransform="translate(23.9873 24.2992) scale(21.7313)">
<stop stop-color="#00FFFF"/>
<stop offset="1" stop-color="#42E8E0"/>
</radialGradient>
</defs>
</svg>
