<svg width="18" height="17" viewBox="0 0 18 17" fill="none" xmlns="http://www.w3.org/2000/svg">
<path d="M3.82861 14.648V9.37451L6.71924 16.3277H5.5083C5.06559 16.3277 4.67497 16.1584 4.33643 15.8199C3.99788 15.4813 3.82861 15.0907 3.82861 14.648ZM4.92236 5.27295C5.07861 5.4292 5.27393 5.50732 5.5083 5.50732C5.74268 5.50732 5.93799 5.4292 6.09424 5.27295C6.25049 5.09065 6.32861 4.88232 6.32861 4.64795C6.32861 4.41357 6.25049 4.21826 6.09424 4.06201C5.93799 3.90576 5.74268 3.82763 5.5083 3.82763C5.27393 3.82763 5.07861 3.90576 4.92236 4.06201C4.76611 4.21826 4.68799 4.41357 4.68799 4.64795C4.68799 4.88232 4.76611 5.09065 4.92236 5.27295ZM17.3052 11.4839C17.3834 11.6402 17.4224 11.8485 17.4224 12.1089C17.4224 12.4214 17.3182 12.7339 17.1099 13.0464C16.9276 13.3589 16.6932 13.5673 16.4068 13.6714L10.274 16.2105C10.1177 16.2886 9.90935 16.3277 9.64895 16.3277C9.33643 16.3277 9.02393 16.2365 8.71143 16.0542C8.42497 15.8459 8.21663 15.5985 8.08643 15.312L3.9458 5.31201C3.86768 5.15576 3.82861 4.94743 3.82861 4.68701C3.82861 4.37451 3.91976 4.07503 4.10205 3.78857C4.31038 3.50211 4.55778 3.29378 4.84424 3.16357L11.0162 0.624511C11.2505 0.546386 11.4719 0.507324 11.6802 0.507324C11.9667 0.507324 12.253 0.611491 12.5395 0.819824C12.826 1.00211 13.0343 1.23649 13.1645 1.52295L17.3052 11.4839ZM1.05518 14.5699C0.638511 14.3876 0.339031 14.0881 0.156739 13.6714C-0.0255535 13.2548 -0.0255535 12.8381 0.156739 12.4214L2.18799 7.53857V15.0386L1.05518 14.5699Z" fill="#A7B5C4"/>
</svg>
