<svg width="1440" height="5253" viewBox="0 0 1440 5253" fill="none" xmlns="http://www.w3.org/2000/svg">
    <line x1="176.327" y1="173.636" x2="176.327" y2="329.137" stroke="#A9C4E1" stroke-width="2"/>
    <path d="M185.249 161.121C185.249 167.652 180.838 172.635 175.748 172.635C170.658 172.635 166.247 167.652 166.247 161.121C166.247 154.59 170.658 149.606 175.748 149.606C180.838 149.606 185.249 154.59 185.249 161.121Z" stroke="#A9C4E1" stroke-width="2"/>
    <path d="M190.131 161.122C190.131 170.866 183.535 178.454 175.748 178.454C167.962 178.454 161.365 170.866 161.365 161.122C161.365 151.378 167.962 143.789 175.748 143.789C183.535 143.789 190.131 151.378 190.131 161.122Z" stroke="#A6C0DB" stroke-opacity="0.38" stroke-width="2"/>
    <ellipse cx="175.749" cy="161.122" rx="4.14757" ry="4.94284" fill="#19CBFE"/>
    <line x1="512.518" y1="85.5332" x2="512.518" y2="241.035" stroke="#A9C4E1" stroke-width="2"/>
    <path d="M521.441 73.0193C521.441 79.5501 517.03 84.5338 511.94 84.5338C506.85 84.5338 502.439 79.5501 502.439 73.0193C502.439 66.4886 506.85 61.5049 511.94 61.5049C517.03 61.5049 521.441 66.4886 521.441 73.0193Z" stroke="#A9C4E1" stroke-width="2"/>
    <path d="M526.322 73.0201C526.322 82.7642 519.725 90.3527 511.939 90.3527C504.153 90.3527 497.556 82.7642 497.556 73.0201C497.556 63.2761 504.153 55.6875 511.939 55.6875C519.725 55.6875 526.322 63.2761 526.322 73.0201Z" stroke="#A6C0DB" stroke-opacity="0.38" stroke-width="2"/>
    <ellipse cx="511.94" cy="73.02" rx="4.14757" ry="4.94284" fill="#19CBFE"/>
    <line x1="947.169" y1="140.953" x2="947.169" y2="241.881" stroke="#A9C4E1" stroke-width="2"/>
    <path d="M956.09 131.018C956.09 137.549 951.679 142.533 946.589 142.533C941.499 142.533 937.088 137.549 937.088 131.018C937.088 124.488 941.499 119.504 946.589 119.504C951.679 119.504 956.09 124.488 956.09 131.018Z" stroke="#A9C4E1" stroke-width="2"/>
    <path d="M960.972 131.019C960.972 140.763 954.376 148.352 946.589 148.352C938.803 148.352 932.206 140.763 932.206 131.019C932.206 121.275 938.803 113.687 946.589 113.687C954.376 113.687 960.972 121.275 960.972 131.019Z" stroke="#A6C0DB" stroke-opacity="0.38" stroke-width="2"/>
    <ellipse cx="946.59" cy="131.019" rx="4.14757" ry="4.94284" fill="#19CBFE"/>
    <line x1="1306.96" y1="208.991" x2="1306.96" y2="364.493" stroke="#A9C4E1" stroke-width="2"/>
    <path d="M1315.88 196.476C1315.88 203.007 1311.47 207.991 1306.38 207.991C1301.29 207.991 1296.88 203.007 1296.88 196.476C1296.88 189.946 1301.29 184.962 1306.38 184.962C1311.47 184.962 1315.88 189.946 1315.88 196.476Z" stroke="#A9C4E1" stroke-width="2"/>
    <path d="M1320.77 196.477C1320.77 206.221 1314.17 213.81 1306.38 213.81C1298.6 213.81 1292 206.221 1292 196.477C1292 186.733 1298.6 179.145 1306.38 179.145C1314.17 179.145 1320.77 186.733 1320.77 196.477Z" stroke="#A6C0DB" stroke-opacity="0.38" stroke-width="2"/>
    <ellipse cx="1306.38" cy="196.477" rx="4.14757" ry="4.94284" fill="#19CBFE"/>
    <path d="M73.6422 356.528L0 295.885V5252.5H1440V387.685L1379.15 338.166L1307.86 363.957L1186.16 331.976L1117.48 240.158L1015.77 276.266L947.961 240.158L824.516 250.475L727.152 317.532L654.129 235L583.713 268.013L513.298 240.158L389.701 291.148L292.564 258.458L175.128 327.279L73.6422 356.528Z" fill="url(#paint0_linear_0_1)"/>
    <path d="M115.51 93.7672V114.131H111.205V97.8539H111.085L106.422 100.777V96.959L111.463 93.7672H115.51ZM127.927 114.409C126.522 114.409 125.269 114.151 124.169 113.634C123.075 113.117 122.207 112.404 121.564 111.496C120.921 110.588 120.586 109.547 120.559 108.374H124.736C124.782 109.163 125.113 109.802 125.73 110.293C126.346 110.783 127.079 111.029 127.927 111.029C128.603 111.029 129.2 110.879 129.717 110.581C130.241 110.276 130.648 109.855 130.94 109.318C131.238 108.775 131.388 108.152 131.388 107.449C131.388 106.733 131.235 106.103 130.93 105.56C130.632 105.016 130.218 104.592 129.687 104.287C129.157 103.982 128.55 103.826 127.868 103.82C127.271 103.82 126.691 103.942 126.128 104.188C125.571 104.433 125.137 104.768 124.825 105.192L120.997 104.506L121.961 93.7672H134.41V97.2871H125.511L124.984 102.388H125.103C125.461 101.884 126.002 101.467 126.724 101.135C127.447 100.804 128.255 100.638 129.15 100.638C130.377 100.638 131.47 100.926 132.432 101.503C133.393 102.08 134.152 102.872 134.709 103.879C135.265 104.88 135.54 106.034 135.534 107.34C135.54 108.712 135.222 109.932 134.579 110.999C133.943 112.059 133.051 112.895 131.905 113.504C130.764 114.108 129.439 114.409 127.927 114.409Z" fill="#1B2758"/>
    <path d="M150.625 111.131H146.585V98.0399H150.804C152.074 98.0399 153.161 98.302 154.064 98.8262C154.967 99.3461 155.66 100.094 156.141 101.07C156.623 102.041 156.864 103.205 156.864 104.56C156.864 105.923 156.621 107.097 156.135 108.082C155.649 109.062 154.942 109.816 154.013 110.345C153.084 110.869 151.955 111.131 150.625 111.131ZM148.17 109.725H150.523C151.605 109.725 152.502 109.516 153.214 109.098C153.925 108.681 154.456 108.086 154.805 107.315C155.155 106.544 155.33 105.625 155.33 104.56C155.33 103.503 155.157 102.593 154.812 101.83C154.467 101.063 153.951 100.475 153.265 100.066C152.579 99.6529 151.724 99.4462 150.702 99.4462H148.17V109.725ZM162.207 111.361C161.585 111.361 161.021 111.244 160.513 111.009C160.006 110.771 159.604 110.428 159.305 109.98C159.007 109.529 158.858 108.983 158.858 108.344C158.858 107.781 158.969 107.325 159.19 106.976C159.412 106.622 159.708 106.345 160.079 106.145C160.45 105.945 160.859 105.796 161.306 105.698C161.758 105.595 162.212 105.514 162.668 105.455C163.264 105.378 163.748 105.32 164.119 105.282C164.494 105.24 164.766 105.169 164.937 105.071C165.112 104.973 165.199 104.803 165.199 104.56V104.509C165.199 103.878 165.026 103.388 164.681 103.039C164.34 102.689 163.822 102.514 163.128 102.514C162.408 102.514 161.843 102.672 161.434 102.987C161.025 103.303 160.737 103.639 160.571 103.997L159.139 103.486C159.395 102.889 159.736 102.425 160.162 102.093C160.592 101.756 161.061 101.521 161.568 101.389C162.08 101.253 162.582 101.185 163.077 101.185C163.392 101.185 163.754 101.223 164.163 101.3C164.577 101.372 164.975 101.524 165.359 101.754C165.746 101.984 166.068 102.331 166.324 102.796C166.58 103.26 166.707 103.882 166.707 104.662V111.131H165.199V109.801H165.122C165.02 110.014 164.849 110.242 164.611 110.485C164.372 110.728 164.055 110.935 163.658 111.105C163.262 111.276 162.778 111.361 162.207 111.361ZM162.438 110.006C163.034 110.006 163.537 109.889 163.946 109.654C164.359 109.42 164.67 109.117 164.879 108.747C165.092 108.376 165.199 107.986 165.199 107.577V106.196C165.135 106.273 164.994 106.343 164.777 106.407C164.564 106.467 164.317 106.52 164.036 106.567C163.759 106.61 163.488 106.648 163.224 106.682C162.964 106.712 162.753 106.737 162.591 106.759C162.199 106.81 161.832 106.893 161.491 107.008C161.155 107.119 160.882 107.287 160.673 107.513C160.469 107.735 160.366 108.037 160.366 108.421C160.366 108.945 160.56 109.341 160.948 109.61C161.34 109.874 161.837 110.006 162.438 110.006ZM173.731 101.313V102.591H168.643V101.313H173.731ZM170.126 98.9604H171.634V108.318C171.634 108.744 171.696 109.064 171.819 109.277C171.947 109.486 172.109 109.627 172.305 109.699C172.506 109.767 172.716 109.801 172.938 109.801C173.104 109.801 173.241 109.793 173.347 109.776C173.454 109.754 173.539 109.737 173.603 109.725L173.91 111.08C173.807 111.118 173.665 111.156 173.481 111.195C173.298 111.237 173.066 111.259 172.785 111.259C172.358 111.259 171.941 111.167 171.532 110.984C171.127 110.801 170.79 110.521 170.522 110.146C170.258 109.771 170.126 109.298 170.126 108.727V98.9604ZM178.889 111.361C178.267 111.361 177.702 111.244 177.195 111.009C176.688 110.771 176.285 110.428 175.987 109.98C175.689 109.529 175.54 108.983 175.54 108.344C175.54 107.781 175.65 107.325 175.872 106.976C176.094 106.622 176.39 106.345 176.76 106.145C177.131 105.945 177.54 105.796 177.988 105.698C178.439 105.595 178.893 105.514 179.349 105.455C179.946 105.378 180.43 105.32 180.8 105.282C181.175 105.24 181.448 105.169 181.618 105.071C181.793 104.973 181.881 104.803 181.881 104.56V104.509C181.881 103.878 181.708 103.388 181.363 103.039C181.022 102.689 180.504 102.514 179.809 102.514C179.089 102.514 178.525 102.672 178.116 102.987C177.706 103.303 177.419 103.639 177.253 103.997L175.821 103.486C176.077 102.889 176.417 102.425 176.844 102.093C177.274 101.756 177.743 101.521 178.25 101.389C178.761 101.253 179.264 101.185 179.758 101.185C180.074 101.185 180.436 101.223 180.845 101.3C181.258 101.372 181.657 101.524 182.04 101.754C182.428 101.984 182.75 102.331 183.006 102.796C183.261 103.26 183.389 103.882 183.389 104.662V111.131H181.881V109.801H181.804C181.702 110.014 181.531 110.242 181.292 110.485C181.054 110.728 180.736 110.935 180.34 111.105C179.944 111.276 179.46 111.361 178.889 111.361ZM179.119 110.006C179.716 110.006 180.219 109.889 180.628 109.654C181.041 109.42 181.352 109.117 181.561 108.747C181.774 108.376 181.881 107.986 181.881 107.577V106.196C181.817 106.273 181.676 106.343 181.459 106.407C181.246 106.467 180.998 106.52 180.717 106.567C180.44 106.61 180.17 106.648 179.905 106.682C179.645 106.712 179.434 106.737 179.273 106.759C178.881 106.81 178.514 106.893 178.173 107.008C177.836 107.119 177.564 107.287 177.355 107.513C177.15 107.735 177.048 108.037 177.048 108.421C177.048 108.945 177.242 109.341 177.63 109.61C178.022 109.874 178.518 110.006 179.119 110.006ZM190.131 111.335C189.211 111.335 188.418 111.118 187.753 110.683C187.088 110.249 186.577 109.65 186.219 108.887C185.861 108.124 185.682 107.253 185.682 106.273C185.682 105.276 185.865 104.396 186.232 103.633C186.603 102.866 187.118 102.267 187.779 101.837C188.444 101.402 189.219 101.185 190.105 101.185C190.796 101.185 191.418 101.313 191.972 101.568C192.526 101.824 192.98 102.182 193.333 102.642C193.687 103.102 193.907 103.639 193.992 104.253H192.483C192.368 103.806 192.113 103.409 191.716 103.064C191.324 102.715 190.796 102.54 190.131 102.54C189.543 102.54 189.027 102.693 188.584 103C188.145 103.303 187.802 103.731 187.555 104.285C187.312 104.835 187.191 105.48 187.191 106.222C187.191 106.98 187.31 107.641 187.549 108.203C187.792 108.766 188.132 109.203 188.571 109.514C189.015 109.825 189.534 109.98 190.131 109.98C190.523 109.98 190.879 109.912 191.199 109.776C191.518 109.639 191.789 109.443 192.01 109.188C192.232 108.932 192.39 108.625 192.483 108.267H193.992C193.907 108.847 193.696 109.369 193.359 109.833C193.027 110.294 192.586 110.66 192.036 110.933C191.49 111.201 190.855 111.335 190.131 111.335ZM200.314 111.335C199.368 111.335 198.551 111.127 197.865 110.709C197.184 110.287 196.657 109.699 196.287 108.945C195.92 108.186 195.737 107.304 195.737 106.298C195.737 105.293 195.92 104.406 196.287 103.639C196.657 102.868 197.173 102.267 197.833 101.837C198.498 101.402 199.274 101.185 200.16 101.185C200.672 101.185 201.176 101.27 201.675 101.441C202.174 101.611 202.627 101.888 203.037 102.271C203.446 102.651 203.772 103.154 204.015 103.78C204.257 104.406 204.379 105.178 204.379 106.094V106.733H196.811V105.429H202.845C202.845 104.875 202.734 104.381 202.512 103.946C202.295 103.512 201.984 103.169 201.579 102.917C201.179 102.666 200.706 102.54 200.16 102.54C199.559 102.54 199.039 102.689 198.6 102.987C198.166 103.281 197.831 103.665 197.597 104.138C197.363 104.611 197.245 105.118 197.245 105.659V106.529C197.245 107.27 197.373 107.899 197.629 108.414C197.889 108.926 198.249 109.316 198.709 109.584C199.169 109.848 199.704 109.98 200.314 109.98C200.71 109.98 201.068 109.925 201.387 109.814C201.711 109.699 201.99 109.529 202.225 109.303C202.459 109.073 202.64 108.787 202.768 108.446L204.225 108.855C204.072 109.35 203.814 109.784 203.452 110.159C203.09 110.53 202.642 110.82 202.11 111.029C201.577 111.233 200.978 111.335 200.314 111.335ZM208.182 105.225V111.131H206.674V101.313H208.131V102.847H208.259C208.489 102.348 208.838 101.948 209.307 101.645C209.776 101.338 210.381 101.185 211.123 101.185C211.787 101.185 212.369 101.321 212.868 101.594C213.366 101.862 213.754 102.271 214.031 102.821C214.308 103.367 214.446 104.057 214.446 104.892V111.131H212.938V104.994C212.938 104.223 212.738 103.622 212.337 103.192C211.936 102.757 211.387 102.54 210.688 102.54C210.206 102.54 209.776 102.644 209.397 102.853C209.022 103.062 208.725 103.367 208.508 103.767C208.291 104.168 208.182 104.654 208.182 105.225ZM221.473 101.313V102.591H216.385V101.313H221.473ZM217.868 98.9604H219.376V108.318C219.376 108.744 219.438 109.064 219.562 109.277C219.689 109.486 219.851 109.627 220.047 109.699C220.248 109.767 220.459 109.801 220.68 109.801C220.846 109.801 220.983 109.793 221.089 109.776C221.196 109.754 221.281 109.737 221.345 109.725L221.652 111.08C221.55 111.118 221.407 111.156 221.224 111.195C221.04 111.237 220.808 111.259 220.527 111.259C220.101 111.259 219.683 111.167 219.274 110.984C218.869 110.801 218.532 110.521 218.264 110.146C218 109.771 217.868 109.298 217.868 108.727V98.9604ZM227.753 111.335C226.807 111.335 225.991 111.127 225.305 110.709C224.623 110.287 224.097 109.699 223.726 108.945C223.36 108.186 223.176 107.304 223.176 106.298C223.176 105.293 223.36 104.406 223.726 103.639C224.097 102.868 224.612 102.267 225.273 101.837C225.938 101.402 226.713 101.185 227.6 101.185C228.111 101.185 228.616 101.27 229.115 101.441C229.613 101.611 230.067 101.888 230.476 102.271C230.885 102.651 231.211 103.154 231.454 103.78C231.697 104.406 231.818 105.178 231.818 106.094V106.733H224.25V105.429H230.284C230.284 104.875 230.173 104.381 229.952 103.946C229.735 103.512 229.423 103.169 229.019 102.917C228.618 102.666 228.145 102.54 227.6 102.54C226.999 102.54 226.479 102.689 226.04 102.987C225.605 103.281 225.271 103.665 225.036 104.138C224.802 104.611 224.685 105.118 224.685 105.659V106.529C224.685 107.27 224.813 107.899 225.068 108.414C225.328 108.926 225.688 109.316 226.149 109.584C226.609 109.848 227.144 109.98 227.753 109.98C228.149 109.98 228.507 109.925 228.827 109.814C229.151 109.699 229.43 109.529 229.664 109.303C229.899 109.073 230.08 108.787 230.208 108.446L231.665 108.855C231.512 109.35 231.254 109.784 230.892 110.159C230.529 110.53 230.082 110.82 229.549 111.029C229.017 111.233 228.418 111.335 227.753 111.335ZM234.113 111.131V101.313H235.57V102.796H235.673C235.852 102.31 236.176 101.916 236.644 101.613C237.113 101.311 237.642 101.159 238.23 101.159C238.34 101.159 238.479 101.161 238.645 101.166C238.811 101.17 238.937 101.176 239.022 101.185V102.719C238.971 102.706 238.854 102.687 238.671 102.661C238.492 102.632 238.302 102.617 238.102 102.617C237.624 102.617 237.198 102.717 236.823 102.917C236.453 103.113 236.159 103.386 235.941 103.735C235.728 104.08 235.622 104.475 235.622 104.918V111.131H234.113ZM247.765 103.512L246.41 103.895C246.325 103.669 246.199 103.45 246.033 103.237C245.871 103.019 245.649 102.84 245.368 102.7C245.087 102.559 244.727 102.489 244.288 102.489C243.687 102.489 243.186 102.627 242.786 102.904C242.389 103.177 242.191 103.524 242.191 103.946C242.191 104.321 242.327 104.617 242.6 104.835C242.873 105.052 243.299 105.233 243.879 105.378L245.336 105.736C246.214 105.949 246.868 106.275 247.298 106.714C247.729 107.149 247.944 107.709 247.944 108.395C247.944 108.958 247.782 109.46 247.458 109.904C247.138 110.347 246.691 110.696 246.116 110.952C245.54 111.208 244.871 111.335 244.109 111.335C243.107 111.335 242.278 111.118 241.622 110.683C240.966 110.249 240.55 109.614 240.376 108.779L241.808 108.421C241.944 108.949 242.202 109.345 242.581 109.61C242.964 109.874 243.465 110.006 244.083 110.006C244.786 110.006 245.344 109.857 245.758 109.558C246.175 109.256 246.384 108.894 246.384 108.472C246.384 108.131 246.265 107.845 246.026 107.615C245.788 107.381 245.421 107.206 244.927 107.091L243.29 106.708C242.391 106.494 241.731 106.164 241.309 105.717C240.891 105.265 240.683 104.7 240.683 104.023C240.683 103.469 240.838 102.979 241.149 102.553C241.464 102.127 241.893 101.792 242.434 101.549C242.979 101.306 243.597 101.185 244.288 101.185C245.259 101.185 246.022 101.398 246.576 101.824C247.134 102.25 247.531 102.813 247.765 103.512Z" fill="#606F8C"/>
    <path d="M466.247 27.2784C464.716 27.2784 463.354 27.0298 462.161 26.5327C460.974 26.0289 460.043 25.3428 459.366 24.4744C458.69 23.6061 458.352 22.6217 458.352 21.5213C458.352 20.6728 458.545 19.8939 458.929 19.1847C459.32 18.4688 459.85 17.8755 460.52 17.4048C461.189 16.9276 461.938 16.6226 462.767 16.4901V16.3509C461.68 16.1321 460.798 15.6051 460.122 14.7699C459.446 13.928 459.108 12.9503 459.108 11.8366C459.108 10.7827 459.416 9.8447 460.033 9.02273C460.649 8.19413 461.494 7.54451 462.568 7.07386C463.649 6.59659 464.875 6.35795 466.247 6.35795C467.619 6.35795 468.842 6.59659 469.916 7.07386C470.997 7.55114 471.845 8.20407 472.462 9.03267C473.078 9.85464 473.39 10.7893 473.396 11.8366C473.39 12.9569 473.045 13.9347 472.362 14.7699C471.679 15.6051 470.804 16.1321 469.737 16.3509V16.4901C470.553 16.6226 471.292 16.9276 471.955 17.4048C472.624 17.8755 473.154 18.4688 473.545 19.1847C473.943 19.8939 474.145 20.6728 474.152 21.5213C474.145 22.6217 473.804 23.6061 473.128 24.4744C472.452 25.3428 471.517 26.0289 470.324 26.5327C469.137 27.0298 467.778 27.2784 466.247 27.2784ZM466.247 24.1165C466.93 24.1165 467.527 23.9938 468.037 23.7486C468.547 23.4967 468.945 23.152 469.23 22.7145C469.522 22.2704 469.668 21.7599 469.668 21.1832C469.668 20.5933 469.518 20.0729 469.22 19.6222C468.922 19.1648 468.518 18.8068 468.007 18.5483C467.497 18.2831 466.91 18.1506 466.247 18.1506C465.591 18.1506 465.004 18.2831 464.487 18.5483C463.97 18.8068 463.563 19.1648 463.264 19.6222C462.973 20.0729 462.827 20.5933 462.827 21.1832C462.827 21.7599 462.969 22.2704 463.254 22.7145C463.539 23.152 463.94 23.4967 464.457 23.7486C464.974 23.9938 465.571 24.1165 466.247 24.1165ZM466.247 15.0185C466.817 15.0185 467.324 14.9025 467.768 14.6705C468.213 14.4384 468.561 14.117 468.812 13.706C469.064 13.295 469.19 12.821 469.19 12.2841C469.19 11.7538 469.064 11.2898 468.812 10.892C468.561 10.4877 468.216 10.1728 467.778 9.94744C467.341 9.71544 466.83 9.59943 466.247 9.59943C465.67 9.59943 465.16 9.71544 464.716 9.94744C464.272 10.1728 463.924 10.4877 463.672 10.892C463.427 11.2898 463.304 11.7538 463.304 12.2841C463.304 12.821 463.43 13.295 463.682 13.706C463.934 14.117 464.282 14.4384 464.726 14.6705C465.17 14.9025 465.677 15.0185 466.247 15.0185Z" fill="#1B2758"/>
    <path d="M496.034 16.1182H494.449C494.355 15.6622 494.191 15.2616 493.957 14.9165C493.726 14.5713 493.445 14.2815 493.113 14.0471C492.785 13.8085 492.42 13.6295 492.02 13.5102C491.619 13.3909 491.202 13.3312 490.767 13.3312C489.974 13.3312 489.256 13.5315 488.613 13.9321C487.974 14.3327 487.464 14.9229 487.085 15.7027C486.71 16.4825 486.523 17.4392 486.523 18.5727C486.523 19.7062 486.71 20.6629 487.085 21.4427C487.464 22.2226 487.974 22.8128 488.613 23.2133C489.256 23.6139 489.974 23.8142 490.767 23.8142C491.202 23.8142 491.619 23.7545 492.02 23.6352C492.42 23.5159 492.785 23.339 493.113 23.1047C493.445 22.866 493.726 22.5741 493.957 22.229C494.191 21.8795 494.355 21.479 494.449 21.0273H496.034C495.915 21.6963 495.697 22.295 495.382 22.8234C495.067 23.3518 494.675 23.8014 494.206 24.1721C493.737 24.5386 493.211 24.8177 492.627 25.0095C492.047 25.2013 491.427 25.2971 490.767 25.2971C489.65 25.2971 488.658 25.0244 487.788 24.479C486.919 23.9335 486.235 23.1579 485.736 22.1523C485.238 21.1466 484.988 19.9534 484.988 18.5727C484.988 17.192 485.238 15.9988 485.736 14.9932C486.235 13.9875 486.919 13.2119 487.788 12.6665C488.658 12.121 489.65 11.8483 490.767 11.8483C491.427 11.8483 492.047 11.9442 492.627 12.1359C493.211 12.3277 493.737 12.6089 494.206 12.9797C494.675 13.3461 495.067 13.7936 495.382 14.322C495.697 14.8461 495.915 15.4449 496.034 16.1182ZM502.38 25.3227C501.493 25.3227 500.716 25.1118 500.047 24.6899C499.382 24.268 498.862 23.6778 498.487 22.9193C498.116 22.1608 497.931 21.2744 497.931 20.2602C497.931 19.2375 498.116 18.3447 498.487 17.5819C498.862 16.8192 499.382 16.2268 500.047 15.805C500.716 15.3831 501.493 15.1721 502.38 15.1721C503.266 15.1721 504.042 15.3831 504.706 15.805C505.375 16.2268 505.895 16.8192 506.266 17.5819C506.641 18.3447 506.828 19.2375 506.828 20.2602C506.828 21.2744 506.641 22.1608 506.266 22.9193C505.895 23.6778 505.375 24.268 504.706 24.6899C504.042 25.1118 503.266 25.3227 502.38 25.3227ZM502.38 23.9676C503.053 23.9676 503.607 23.795 504.042 23.4498C504.476 23.1047 504.798 22.6508 505.007 22.0883C505.216 21.5258 505.32 20.9165 505.32 20.2602C505.32 19.604 505.216 18.9925 505.007 18.4257C504.798 17.8589 504.476 17.4008 504.042 17.0514C503.607 16.702 503.053 16.5273 502.38 16.5273C501.706 16.5273 501.152 16.702 500.718 17.0514C500.283 17.4008 499.961 17.8589 499.753 18.4257C499.544 18.9925 499.439 19.604 499.439 20.2602C499.439 20.9165 499.544 21.5258 499.753 22.0883C499.961 22.6508 500.283 23.1047 500.718 23.4498C501.152 23.795 501.706 23.9676 502.38 23.9676ZM515.319 21.104V15.3H516.827V25.1182H515.319V23.4562H515.216C514.986 23.9548 514.628 24.3788 514.143 24.7282C513.657 25.0734 513.043 25.246 512.302 25.246C511.688 25.246 511.143 25.1118 510.665 24.8433C510.188 24.5706 509.813 24.1615 509.54 23.616C509.268 23.0663 509.131 22.3738 509.131 21.5386V15.3H510.64V21.4363C510.64 22.1523 510.84 22.7233 511.241 23.1494C511.645 23.5756 512.161 23.7886 512.787 23.7886C513.162 23.7886 513.544 23.6927 513.932 23.501C514.324 23.3092 514.652 23.0152 514.916 22.6189C515.184 22.2226 515.319 21.7176 515.319 21.104ZM521.099 19.2119V25.1182H519.59V15.3H521.048V16.8341H521.175C521.406 16.3355 521.755 15.9349 522.224 15.6324C522.692 15.3256 523.298 15.1721 524.039 15.1721C524.704 15.1721 525.286 15.3085 525.784 15.5812C526.283 15.8497 526.67 16.2588 526.947 16.8085C527.224 17.354 527.363 18.0443 527.363 18.8795V25.1182H525.854V18.9818C525.854 18.2105 525.654 17.6096 525.254 17.1792C524.853 16.7446 524.303 16.5273 523.604 16.5273C523.123 16.5273 522.692 16.6317 522.313 16.8405C521.938 17.0493 521.642 17.354 521.425 17.7545C521.207 18.1551 521.099 18.6409 521.099 19.2119ZM534.389 15.3V16.5784H529.301V15.3H534.389ZM530.784 12.9477H532.293V22.3057C532.293 22.7318 532.355 23.0514 532.478 23.2645C532.606 23.4733 532.768 23.6139 532.964 23.6863C533.164 23.7545 533.375 23.7886 533.597 23.7886C533.763 23.7886 533.899 23.7801 534.006 23.7631C534.112 23.7417 534.198 23.7247 534.262 23.7119L534.568 25.067C534.466 25.1054 534.323 25.1437 534.14 25.1821C533.957 25.2247 533.725 25.246 533.443 25.246C533.017 25.246 532.6 25.1544 532.191 24.9711C531.786 24.7879 531.449 24.5088 531.181 24.1338C530.916 23.7588 530.784 23.2858 530.784 22.7148V12.9477ZM536.659 25.1182V15.3H538.116V16.7829H538.218C538.397 16.2971 538.721 15.903 539.19 15.6004C539.659 15.2979 540.187 15.1466 540.775 15.1466C540.886 15.1466 541.024 15.1487 541.191 15.153C541.357 15.1572 541.482 15.1636 541.568 15.1721V16.7062C541.517 16.6934 541.399 16.6743 541.216 16.6487C541.037 16.6189 540.847 16.604 540.647 16.604C540.17 16.604 539.744 16.7041 539.369 16.9044C538.998 17.1004 538.704 17.3731 538.487 17.7226C538.274 18.0677 538.167 18.4619 538.167 18.9051V25.1182H536.659ZM543.356 25.1182V15.3H544.864V25.1182H543.356ZM544.123 13.6636C543.829 13.6636 543.575 13.5635 543.362 13.3632C543.153 13.1629 543.049 12.9221 543.049 12.6409C543.049 12.3596 543.153 12.1189 543.362 11.9186C543.575 11.7183 543.829 11.6182 544.123 11.6182C544.417 11.6182 544.668 11.7183 544.877 11.9186C545.09 12.1189 545.197 12.3596 545.197 12.6409C545.197 12.9221 545.09 13.1629 544.877 13.3632C544.668 13.5635 544.417 13.6636 544.123 13.6636ZM551.744 25.3227C550.798 25.3227 549.982 25.1139 549.296 24.6963C548.614 24.2744 548.088 23.6863 547.717 22.9321C547.35 22.1736 547.167 21.2915 547.167 20.2858C547.167 19.2801 547.35 18.3937 547.717 17.6267C548.088 16.8554 548.603 16.2545 549.264 15.8241C549.928 15.3895 550.704 15.1721 551.59 15.1721C552.102 15.1721 552.607 15.2574 553.105 15.4278C553.604 15.5983 554.058 15.8753 554.467 16.2588C554.876 16.6381 555.202 17.1409 555.445 17.7673C555.688 18.3937 555.809 19.165 555.809 20.0812V20.7204H548.241V19.4165H554.275C554.275 18.8625 554.164 18.3682 553.943 17.9335C553.725 17.4988 553.414 17.1558 553.009 16.9044C552.609 16.653 552.136 16.5273 551.59 16.5273C550.99 16.5273 550.47 16.6764 550.031 16.9747C549.596 17.2687 549.262 17.6523 549.027 18.1253C548.793 18.5983 548.676 19.1054 548.676 19.6466V20.5159C548.676 21.2574 548.803 21.8859 549.059 22.4015C549.319 22.9129 549.679 23.3028 550.139 23.5713C550.6 23.8355 551.134 23.9676 551.744 23.9676C552.14 23.9676 552.498 23.9122 552.818 23.8014C553.142 23.6863 553.421 23.5159 553.655 23.29C553.889 23.0599 554.071 22.7744 554.198 22.4335L555.656 22.8426C555.502 23.3369 555.245 23.7716 554.882 24.1466C554.52 24.5173 554.073 24.8071 553.54 25.0159C553.007 25.2204 552.409 25.3227 551.744 25.3227ZM565.058 17.4988L563.703 17.8824C563.618 17.6565 563.492 17.4371 563.326 17.224C563.164 17.0067 562.943 16.8277 562.661 16.6871C562.38 16.5464 562.02 16.4761 561.581 16.4761C560.98 16.4761 560.48 16.6146 560.079 16.8916C559.683 17.1643 559.485 17.5116 559.485 17.9335C559.485 18.3085 559.621 18.6047 559.894 18.822C560.166 19.0393 560.593 19.2204 561.172 19.3653L562.629 19.7233C563.507 19.9363 564.161 20.2623 564.592 20.7013C565.022 21.1359 565.237 21.6963 565.237 22.3824C565.237 22.9449 565.075 23.4477 564.752 23.8909C564.432 24.3341 563.985 24.6835 563.409 24.9392C562.834 25.1949 562.165 25.3227 561.402 25.3227C560.401 25.3227 559.572 25.1054 558.916 24.6707C558.259 24.2361 557.844 23.6011 557.669 22.7659L559.101 22.4079C559.237 22.9363 559.495 23.3327 559.874 23.5969C560.258 23.8611 560.759 23.9932 561.377 23.9932C562.08 23.9932 562.638 23.844 563.051 23.5457C563.469 23.2432 563.678 22.8809 563.678 22.4591C563.678 22.1182 563.558 21.8327 563.32 21.6025C563.081 21.3682 562.715 21.1934 562.22 21.0784L560.584 20.6949C559.685 20.4818 559.024 20.1515 558.602 19.7041C558.185 19.2524 557.976 18.6878 557.976 18.0102C557.976 17.4562 558.132 16.9662 558.443 16.54C558.758 16.1139 559.186 15.7794 559.727 15.5365C560.273 15.2936 560.891 15.1721 561.581 15.1721C562.553 15.1721 563.316 15.3852 563.87 15.8113C564.428 16.2375 564.824 16.8 565.058 17.4988Z" fill="#606F8C"/>
    <path d="M912.51 67.6364V88H908.205V71.723H908.085L903.422 74.6463V70.8281L908.463 67.6364H912.51ZM925.474 88.4474C923.764 88.4408 922.292 88.0199 921.059 87.1847C919.833 86.3494 918.888 85.1397 918.226 83.5554C917.569 81.9711 917.245 80.0653 917.251 77.8381C917.251 75.6174 917.579 73.7249 918.236 72.1605C918.898 70.5961 919.843 69.4062 921.069 68.5909C922.302 67.7689 923.771 67.358 925.474 67.358C927.178 67.358 928.643 67.7689 929.869 68.5909C931.102 69.4129 932.05 70.6061 932.713 72.1705C933.376 73.7282 933.704 75.6174 933.697 77.8381C933.697 80.072 933.366 81.9811 932.703 83.5653C932.047 85.1496 931.105 86.3594 929.879 87.1946C928.653 88.0298 927.184 88.4474 925.474 88.4474ZM925.474 84.8778C926.641 84.8778 927.572 84.2912 928.268 83.1179C928.964 81.9446 929.309 80.1847 929.302 77.8381C929.302 76.2936 929.143 75.0076 928.825 73.9801C928.513 72.9527 928.069 72.1804 927.493 71.6634C926.923 71.1463 926.25 70.8878 925.474 70.8878C924.314 70.8878 923.386 71.4678 922.69 72.6278C921.994 73.7879 921.643 75.5246 921.636 77.8381C921.636 79.4025 921.792 80.7083 922.103 81.7557C922.422 82.7964 922.869 83.5786 923.446 84.1023C924.022 84.6193 924.699 84.8778 925.474 84.8778Z" fill="#1B2758"/>
    <path d="M955.966 77.1182H954.381C954.288 76.6622 954.123 76.2616 953.889 75.9165C953.659 75.5713 953.378 75.2815 953.045 75.0471C952.717 74.8085 952.353 74.6295 951.952 74.5102C951.552 74.3909 951.134 74.3312 950.699 74.3312C949.907 74.3312 949.189 74.5315 948.545 74.9321C947.906 75.3327 947.397 75.9229 947.018 76.7027C946.643 77.4825 946.455 78.4392 946.455 79.5727C946.455 80.7062 946.643 81.6629 947.018 82.4427C947.397 83.2226 947.906 83.8128 948.545 84.2133C949.189 84.6139 949.907 84.8142 950.699 84.8142C951.134 84.8142 951.552 84.7545 951.952 84.6352C952.353 84.5159 952.717 84.339 953.045 84.1047C953.378 83.866 953.659 83.5741 953.889 83.229C954.123 82.8795 954.288 82.479 954.381 82.0273H955.966C955.847 82.6963 955.63 83.295 955.314 83.8234C954.999 84.3518 954.607 84.8014 954.138 85.1721C953.67 85.5386 953.143 85.8177 952.56 86.0095C951.98 86.2013 951.36 86.2971 950.699 86.2971C949.583 86.2971 948.59 86.0244 947.721 85.479C946.851 84.9335 946.167 84.1579 945.669 83.1523C945.17 82.1466 944.921 80.9534 944.921 79.5727C944.921 78.192 945.17 76.9988 945.669 75.9932C946.167 74.9875 946.851 74.2119 947.721 73.6665C948.59 73.121 949.583 72.8483 950.699 72.8483C951.36 72.8483 951.98 72.9442 952.56 73.1359C953.143 73.3277 953.67 73.6089 954.138 73.9797C954.607 74.3461 954.999 74.7936 955.314 75.322C955.63 75.8461 955.847 76.4449 955.966 77.1182ZM958.324 86.1182V76.3H959.832V86.1182H958.324ZM959.091 74.6636C958.797 74.6636 958.543 74.5635 958.33 74.3632C958.121 74.1629 958.017 73.9221 958.017 73.6409C958.017 73.3596 958.121 73.1189 958.33 72.9186C958.543 72.7183 958.797 72.6182 959.091 72.6182C959.385 72.6182 959.636 72.7183 959.845 72.9186C960.058 73.1189 960.164 73.3596 960.164 73.6409C960.164 73.9221 960.058 74.1629 959.845 74.3632C959.636 74.5635 959.385 74.6636 959.091 74.6636ZM966.865 76.3V77.5784H961.777V76.3H966.865ZM963.26 73.9477H964.768V83.3057C964.768 83.7318 964.83 84.0514 964.954 84.2645C965.082 84.4733 965.243 84.6139 965.439 84.6863C965.64 84.7545 965.851 84.7886 966.072 84.7886C966.239 84.7886 966.375 84.7801 966.481 84.7631C966.588 84.7417 966.673 84.7247 966.737 84.7119L967.044 86.067C966.942 86.1054 966.799 86.1437 966.616 86.1821C966.432 86.2247 966.2 86.246 965.919 86.246C965.493 86.246 965.075 86.1544 964.666 85.9711C964.261 85.7879 963.925 85.5088 963.656 85.1338C963.392 84.7588 963.26 84.2858 963.26 83.7148V73.9477ZM969.134 86.1182V76.3H970.643V86.1182H969.134ZM969.901 74.6636C969.607 74.6636 969.354 74.5635 969.14 74.3632C968.932 74.1629 968.827 73.9221 968.827 73.6409C968.827 73.3596 968.932 73.1189 969.14 72.9186C969.354 72.7183 969.607 72.6182 969.901 72.6182C970.195 72.6182 970.447 72.7183 970.655 72.9186C970.868 73.1189 970.975 73.3596 970.975 73.6409C970.975 73.9221 970.868 74.1629 970.655 74.3632C970.447 74.5635 970.195 74.6636 969.901 74.6636ZM977.522 86.3227C976.576 86.3227 975.76 86.1139 975.074 85.6963C974.392 85.2744 973.866 84.6863 973.495 83.9321C973.129 83.1736 972.945 82.2915 972.945 81.2858C972.945 80.2801 973.129 79.3937 973.495 78.6267C973.866 77.8554 974.381 77.2545 975.042 76.8241C975.707 76.3895 976.482 76.1721 977.369 76.1721C977.88 76.1721 978.385 76.2574 978.884 76.4278C979.382 76.5983 979.836 76.8753 980.245 77.2588C980.654 77.6381 980.98 78.1409 981.223 78.7673C981.466 79.3937 981.587 80.165 981.587 81.0812V81.7204H974.019V80.4165H980.053C980.053 79.8625 979.943 79.3682 979.721 78.9335C979.504 78.4988 979.193 78.1558 978.788 77.9044C978.387 77.653 977.914 77.5273 977.369 77.5273C976.768 77.5273 976.248 77.6764 975.809 77.9747C975.374 78.2687 975.04 78.6523 974.805 79.1253C974.571 79.5983 974.454 80.1054 974.454 80.6466V81.5159C974.454 82.2574 974.582 82.8859 974.837 83.4015C975.097 83.9129 975.457 84.3028 975.918 84.5713C976.378 84.8355 976.913 84.9676 977.522 84.9676C977.918 84.9676 978.276 84.9122 978.596 84.8014C978.92 84.6863 979.199 84.5159 979.433 84.29C979.668 84.0599 979.849 83.7744 979.977 83.4335L981.434 83.8426C981.281 84.3369 981.023 84.7716 980.661 85.1466C980.298 85.5173 979.851 85.8071 979.318 86.0159C978.786 86.2204 978.187 86.3227 977.522 86.3227ZM990.837 78.4988L989.482 78.8824C989.396 78.6565 989.271 78.4371 989.104 78.224C988.943 78.0067 988.721 77.8277 988.44 77.6871C988.158 77.5464 987.798 77.4761 987.359 77.4761C986.759 77.4761 986.258 77.6146 985.857 77.8916C985.461 78.1643 985.263 78.5116 985.263 78.9335C985.263 79.3085 985.399 79.6047 985.672 79.822C985.945 80.0393 986.371 80.2204 986.95 80.3653L988.408 80.7233C989.286 80.9363 989.94 81.2623 990.37 81.7013C990.8 82.1359 991.016 82.6963 991.016 83.3824C991.016 83.9449 990.854 84.4477 990.53 84.8909C990.21 85.3341 989.763 85.6835 989.188 85.9392C988.612 86.1949 987.943 86.3227 987.18 86.3227C986.179 86.3227 985.35 86.1054 984.694 85.6707C984.038 85.2361 983.622 84.6011 983.447 83.7659L984.879 83.4079C985.016 83.9363 985.273 84.3327 985.653 84.5969C986.036 84.8611 986.537 84.9932 987.155 84.9932C987.858 84.9932 988.416 84.844 988.83 84.5457C989.247 84.2432 989.456 83.8809 989.456 83.4591C989.456 83.1182 989.337 82.8327 989.098 82.6025C988.859 82.3682 988.493 82.1934 987.999 82.0784L986.362 81.6949C985.463 81.4818 984.803 81.1515 984.381 80.7041C983.963 80.2524 983.754 79.6878 983.754 79.0102C983.754 78.4562 983.91 77.9662 984.221 77.54C984.536 77.1139 984.965 76.7794 985.506 76.5365C986.051 76.2936 986.669 76.1721 987.359 76.1721C988.331 76.1721 989.094 76.3852 989.648 76.8113C990.206 77.2375 990.602 77.8 990.837 78.4988Z" fill="#606F8C"/>
    <path d="M1238.51 129.636V150H1234.2V133.723H1234.09L1229.42 136.646V132.828L1234.46 129.636H1238.51ZM1251.47 150.447C1249.76 150.441 1248.29 150.02 1247.06 149.185C1245.83 148.349 1244.89 147.14 1244.23 145.555C1243.57 143.971 1243.24 142.065 1243.25 139.838C1243.25 137.617 1243.58 135.725 1244.24 134.161C1244.9 132.596 1245.84 131.406 1247.07 130.591C1248.3 129.769 1249.77 129.358 1251.47 129.358C1253.18 129.358 1254.64 129.769 1255.87 130.591C1257.1 131.413 1258.05 132.606 1258.71 134.17C1259.38 135.728 1259.7 137.617 1259.7 139.838C1259.7 142.072 1259.37 143.981 1258.7 145.565C1258.05 147.15 1257.11 148.359 1255.88 149.195C1254.65 150.03 1253.18 150.447 1251.47 150.447ZM1251.47 146.878C1252.64 146.878 1253.57 146.291 1254.27 145.118C1254.96 143.945 1255.31 142.185 1255.3 139.838C1255.3 138.294 1255.14 137.008 1254.83 135.98C1254.51 134.953 1254.07 134.18 1253.49 133.663C1252.92 133.146 1252.25 132.888 1251.47 132.888C1250.31 132.888 1249.39 133.468 1248.69 134.628C1247.99 135.788 1247.64 137.525 1247.64 139.838C1247.64 141.402 1247.79 142.708 1248.1 143.756C1248.42 144.796 1248.87 145.579 1249.45 146.102C1250.02 146.619 1250.7 146.878 1251.47 146.878ZM1270.89 150.447C1269.18 150.441 1267.71 150.02 1266.48 149.185C1265.25 148.349 1264.31 147.14 1263.64 145.555C1262.99 143.971 1262.66 142.065 1262.67 139.838C1262.67 137.617 1263 135.725 1263.65 134.161C1264.32 132.596 1265.26 131.406 1266.49 130.591C1267.72 129.769 1269.19 129.358 1270.89 129.358C1272.6 129.358 1274.06 129.769 1275.29 130.591C1276.52 131.413 1277.47 132.606 1278.13 134.17C1278.79 135.728 1279.12 137.617 1279.11 139.838C1279.11 142.072 1278.78 143.981 1278.12 145.565C1277.46 147.15 1276.52 148.359 1275.3 149.195C1274.07 150.03 1272.6 150.447 1270.89 150.447ZM1270.89 146.878C1272.06 146.878 1272.99 146.291 1273.69 145.118C1274.38 143.945 1274.73 142.185 1274.72 139.838C1274.72 138.294 1274.56 137.008 1274.24 135.98C1273.93 134.953 1273.49 134.18 1272.91 133.663C1272.34 133.146 1271.67 132.888 1270.89 132.888C1269.73 132.888 1268.8 133.468 1268.11 134.628C1267.41 135.788 1267.06 137.525 1267.05 139.838C1267.05 141.402 1267.21 142.708 1267.52 143.756C1267.84 144.796 1268.29 145.579 1268.86 146.102C1269.44 146.619 1270.12 146.878 1270.89 146.878ZM1290.31 150.447C1288.6 150.441 1287.13 150.02 1285.89 149.185C1284.67 148.349 1283.72 147.14 1283.06 145.555C1282.4 143.971 1282.08 142.065 1282.09 139.838C1282.09 137.617 1282.41 135.725 1283.07 134.161C1283.73 132.596 1284.68 131.406 1285.9 130.591C1287.14 129.769 1288.61 129.358 1290.31 129.358C1292.01 129.358 1293.48 129.769 1294.7 130.591C1295.94 131.413 1296.88 132.606 1297.55 134.17C1298.21 135.728 1298.54 137.617 1298.53 139.838C1298.53 142.072 1298.2 143.981 1297.54 145.565C1296.88 147.15 1295.94 148.359 1294.71 149.195C1293.49 150.03 1292.02 150.447 1290.31 150.447ZM1290.31 146.878C1291.48 146.878 1292.41 146.291 1293.1 145.118C1293.8 143.945 1294.14 142.185 1294.14 139.838C1294.14 138.294 1293.98 137.008 1293.66 135.98C1293.35 134.953 1292.9 134.18 1292.33 133.663C1291.76 133.146 1291.08 132.888 1290.31 132.888C1289.15 132.888 1288.22 133.468 1287.52 134.628C1286.83 135.788 1286.48 137.525 1286.47 139.838C1286.47 141.402 1286.63 142.708 1286.94 143.756C1287.26 144.796 1287.7 145.579 1288.28 146.102C1288.86 146.619 1289.53 146.878 1290.31 146.878ZM1305.62 145.605L1305.63 140.524H1306.25L1311.14 134.727H1316L1309.43 142.403H1308.42L1305.62 145.605ZM1301.78 150V129.636H1306.02V150H1301.78ZM1311.33 150L1306.83 143.348L1309.66 140.355L1316.29 150H1311.33Z" fill="#1B2758"/>
    <path d="M1336.72 139.118H1335.13C1335.04 138.662 1334.88 138.262 1334.64 137.916C1334.41 137.571 1334.13 137.282 1333.8 137.047C1333.47 136.809 1333.11 136.63 1332.71 136.51C1332.3 136.391 1331.89 136.331 1331.45 136.331C1330.66 136.331 1329.94 136.532 1329.3 136.932C1328.66 137.333 1328.15 137.923 1327.77 138.703C1327.4 139.483 1327.21 140.439 1327.21 141.573C1327.21 142.706 1327.4 143.663 1327.77 144.443C1328.15 145.223 1328.66 145.813 1329.3 146.213C1329.94 146.614 1330.66 146.814 1331.45 146.814C1331.89 146.814 1332.3 146.755 1332.71 146.635C1333.11 146.516 1333.47 146.339 1333.8 146.105C1334.13 145.866 1334.41 145.574 1334.64 145.229C1334.88 144.88 1335.04 144.479 1335.13 144.027H1336.72C1336.6 144.696 1336.38 145.295 1336.07 145.823C1335.75 146.352 1335.36 146.801 1334.89 147.172C1334.42 147.539 1333.9 147.818 1333.31 148.009C1332.73 148.201 1332.11 148.297 1331.45 148.297C1330.34 148.297 1329.34 148.024 1328.47 147.479C1327.6 146.934 1326.92 146.158 1326.42 145.152C1325.92 144.147 1325.67 142.953 1325.67 141.573C1325.67 140.192 1325.92 138.999 1326.42 137.993C1326.92 136.987 1327.6 136.212 1328.47 135.666C1329.34 135.121 1330.34 134.848 1331.45 134.848C1332.11 134.848 1332.73 134.944 1333.31 135.136C1333.9 135.328 1334.42 135.609 1334.89 135.98C1335.36 136.346 1335.75 136.794 1336.07 137.322C1336.38 137.846 1336.6 138.445 1336.72 139.118ZM1340.59 135.027V148.118H1339.08V135.027H1340.59ZM1343.35 148.118V138.3H1344.86V148.118H1343.35ZM1344.12 136.664C1343.82 136.664 1343.57 136.563 1343.35 136.363C1343.15 136.163 1343.04 135.922 1343.04 135.641C1343.04 135.36 1343.15 135.119 1343.35 134.919C1343.57 134.718 1343.82 134.618 1344.12 134.618C1344.41 134.618 1344.66 134.718 1344.87 134.919C1345.08 135.119 1345.19 135.36 1345.19 135.641C1345.19 135.922 1345.08 136.163 1344.87 136.363C1344.66 136.563 1344.41 136.664 1344.12 136.664ZM1351.74 148.323C1350.79 148.323 1349.97 148.114 1349.29 147.696C1348.61 147.274 1348.08 146.686 1347.71 145.932C1347.34 145.174 1347.16 144.291 1347.16 143.286C1347.16 142.28 1347.34 141.394 1347.71 140.627C1348.08 139.855 1348.6 139.255 1349.26 138.824C1349.92 138.389 1350.7 138.172 1351.58 138.172C1352.09 138.172 1352.6 138.257 1353.1 138.428C1353.6 138.598 1354.05 138.875 1354.46 139.259C1354.87 139.638 1355.19 140.141 1355.44 140.767C1355.68 141.394 1355.8 142.165 1355.8 143.081V143.72H1348.23V142.416H1354.27C1354.27 141.862 1354.16 141.368 1353.93 140.934C1353.72 140.499 1353.41 140.156 1353 139.904C1352.6 139.653 1352.13 139.527 1351.58 139.527C1350.98 139.527 1350.46 139.676 1350.02 139.975C1349.59 140.269 1349.25 140.652 1349.02 141.125C1348.78 141.598 1348.67 142.105 1348.67 142.647V143.516C1348.67 144.257 1348.8 144.886 1349.05 145.402C1349.31 145.913 1349.67 146.303 1350.13 146.571C1350.59 146.835 1351.13 146.968 1351.74 146.968C1352.13 146.968 1352.49 146.912 1352.81 146.801C1353.13 146.686 1353.41 146.516 1353.65 146.29C1353.88 146.06 1354.06 145.774 1354.19 145.434L1355.65 145.843C1355.49 146.337 1355.24 146.772 1354.87 147.147C1354.51 147.517 1354.06 147.807 1353.53 148.016C1353 148.22 1352.4 148.323 1351.74 148.323ZM1359.6 142.212V148.118H1358.1V138.3H1359.55V139.834H1359.68C1359.91 139.335 1360.26 138.935 1360.73 138.632C1361.2 138.326 1361.8 138.172 1362.54 138.172C1363.21 138.172 1363.79 138.309 1364.29 138.581C1364.79 138.85 1365.18 139.259 1365.45 139.809C1365.73 140.354 1365.87 141.044 1365.87 141.88V148.118H1364.36V141.982C1364.36 141.21 1364.16 140.61 1363.76 140.179C1363.36 139.745 1362.81 139.527 1362.11 139.527C1361.63 139.527 1361.2 139.632 1360.82 139.84C1360.44 140.049 1360.15 140.354 1359.93 140.755C1359.71 141.155 1359.6 141.641 1359.6 142.212ZM1372.9 138.3V139.578H1367.81V138.3H1372.9ZM1369.29 135.948H1370.8V145.306C1370.8 145.732 1370.86 146.051 1370.98 146.264C1371.11 146.473 1371.27 146.614 1371.47 146.686C1371.67 146.755 1371.88 146.789 1372.1 146.789C1372.27 146.789 1372.41 146.78 1372.51 146.763C1372.62 146.742 1372.7 146.725 1372.77 146.712L1373.07 148.067C1372.97 148.105 1372.83 148.144 1372.65 148.182C1372.46 148.225 1372.23 148.246 1371.95 148.246C1371.52 148.246 1371.11 148.154 1370.7 147.971C1370.29 147.788 1369.95 147.509 1369.69 147.134C1369.42 146.759 1369.29 146.286 1369.29 145.715V135.948ZM1381.94 140.499L1380.59 140.882C1380.5 140.657 1380.38 140.437 1380.21 140.224C1380.05 140.007 1379.83 139.828 1379.55 139.687C1379.26 139.546 1378.9 139.476 1378.47 139.476C1377.87 139.476 1377.36 139.615 1376.96 139.892C1376.57 140.164 1376.37 140.512 1376.37 140.934C1376.37 141.309 1376.51 141.605 1376.78 141.822C1377.05 142.039 1377.48 142.22 1378.06 142.365L1379.51 142.723C1380.39 142.936 1381.05 143.262 1381.48 143.701C1381.91 144.136 1382.12 144.696 1382.12 145.382C1382.12 145.945 1381.96 146.448 1381.64 146.891C1381.32 147.334 1380.87 147.684 1380.29 147.939C1379.72 148.195 1379.05 148.323 1378.29 148.323C1377.29 148.323 1376.46 148.105 1375.8 147.671C1375.14 147.236 1374.73 146.601 1374.55 145.766L1375.99 145.408C1376.12 145.936 1376.38 146.333 1376.76 146.597C1377.14 146.861 1377.64 146.993 1378.26 146.993C1378.96 146.993 1379.52 146.844 1379.94 146.546C1380.35 146.243 1380.56 145.881 1380.56 145.459C1380.56 145.118 1380.44 144.833 1380.2 144.603C1379.97 144.368 1379.6 144.193 1379.11 144.078L1377.47 143.695C1376.57 143.482 1375.91 143.152 1375.49 142.704C1375.07 142.252 1374.86 141.688 1374.86 141.01C1374.86 140.456 1375.02 139.966 1375.33 139.54C1375.64 139.114 1376.07 138.779 1376.61 138.536C1377.16 138.294 1377.78 138.172 1378.47 138.172C1379.44 138.172 1380.2 138.385 1380.75 138.811C1381.31 139.237 1381.71 139.8 1381.94 140.499Z" fill="#606F8C"/>
    <path d="M0 296L72.6719 355.438L177.2 327.217L292.5 258L389.242 290.59L513.681 239.552L584.361 268.374L654.047 234.148L727.216 316.409L825.771 250.36L947.721 240.153L1016.41 276.18L1116.96 240.153L1184.65 330.82L1307.1 363.244L1379.77 338.025L1433.53 381.858" stroke="#1E74EF"/>
    <circle cx="74" cy="355" r="4" fill="#20CBE7"/>
    <circle cx="176" cy="326" r="4" fill="#20CBE7"/>
    <circle cx="293" cy="258" r="4" fill="#20CBE7"/>
    <circle cx="390" cy="290" r="4" fill="#20CBE7"/>
    <circle cx="654.567" cy="233.945" r="4" fill="#20CBE7"/>
    <circle cx="584" cy="267" r="4" fill="#20CBE7"/>
    <circle cx="513" cy="240" r="4" fill="#20CBE7"/>
    <circle cx="825.79" cy="250.356" r="4" fill="#20CBE7"/>
    <circle cx="727.476" cy="314.243" r="4" fill="#20CBE7"/>
    <circle cx="947" cy="239" r="4" fill="#20CBE7"/>
    <circle cx="1016.93" cy="275.977" r="4" fill="#20CBE7"/>
    <circle cx="1116.47" cy="240.151" r="4" fill="#20CBE7"/>
    <circle cx="1186.17" cy="330.218" r="4" fill="#20CBE7"/>
    <circle cx="1306.61" cy="363.642" r="4" fill="#20CBE7"/>
    <circle cx="1380.29" cy="337.223" r="4" fill="#20CBE7"/>
    <defs>
        <linearGradient id="paint0_linear_0_1" x1="3.09846e-05" y1="2171.67" x2="1440" y2="2170.75" gradientUnits="userSpaceOnUse">
            <stop stop-color="#0072FC"/>
            <stop offset="1" stop-color="#005AC8"/>
        </linearGradient>
    </defs>
</svg>
