<svg width="26" height="25" viewBox="0 0 26 25" fill="none" xmlns="http://www.w3.org/2000/svg">
<path d="M12.5892 1.18813C12.7388 0.727478 13.3905 0.727479 13.5402 1.18813L16.0956 9.05288C16.1626 9.25889 16.3546 9.39837 16.5712 9.39837H24.8406C25.325 9.39837 25.5264 10.0182 25.1345 10.3029L18.4444 15.1636C18.2691 15.2909 18.1958 15.5166 18.2628 15.7226L20.8182 23.5873C20.9678 24.048 20.4406 24.431 20.0487 24.1463L13.3586 19.2857C13.1833 19.1583 12.946 19.1583 12.7708 19.2857L6.08065 24.1463C5.6888 24.431 5.16156 24.048 5.31123 23.5873L7.86664 15.7226C7.93358 15.5166 7.86025 15.2909 7.68501 15.1636L0.994854 10.3029C0.602997 10.0182 0.804385 9.39837 1.28875 9.39837H9.55823C9.77484 9.39837 9.96682 9.25889 10.0338 9.05288L12.5892 1.18813Z" fill="#F0AD68"/>
</svg>
