<svg width="18" height="18" viewBox="0 0 18 18" fill="none" xmlns="http://www.w3.org/2000/svg">
<path d="M15.8794 13.4375C16.3482 13.4375 16.7388 13.6067 17.0513 13.9453C17.3898 14.2578 17.5591 14.6354 17.5591 15.0781L10.8794 17.5781L5.02002 15.9375V8.4375H6.66065L12.7153 10.664C13.1581 10.8463 13.3794 11.1588 13.3794 11.6015C13.3794 11.8619 13.2752 12.0963 13.0669 12.3047C12.8846 12.4869 12.6502 12.5781 12.3638 12.5781H10.02L8.57471 12.0312L8.30127 12.8125L10.02 13.4375H15.8794ZM12.52 1.95313C13.119 1.27604 13.8742 0.9375 14.7857 0.9375C15.5409 0.9375 16.1789 1.21094 16.6997 1.75782C17.2466 2.27865 17.52 2.91667 17.52 3.67188C17.52 4.24479 17.2466 4.9349 16.6997 5.74219C16.1528 6.52344 15.606 7.1875 15.0591 7.73438C14.5122 8.25521 13.6659 9.03646 12.52 10.0781C11.3742 9.03646 10.5278 8.25521 9.98099 7.73438C9.43409 7.1875 8.88721 6.52344 8.34033 5.74219C7.79346 4.9349 7.52002 4.24479 7.52002 3.67188C7.52002 2.91667 7.79346 2.27865 8.34033 1.75782C8.88721 1.21094 9.53829 0.9375 10.2935 0.9375C11.1789 0.9375 11.9211 1.27604 12.52 1.95313ZM0.0200195 8.4375H3.3794V17.5781H0.0200195V8.4375Z" fill="#A7B5C4"/>
</svg>
