<svg width="139" height="20" viewBox="0 0 139 20" fill="none" xmlns="http://www.w3.org/2000/svg">
<path d="M53.9984 5.0498V18.4585H50.5379V12.9359L47.7745 16.1241H46.6664L43.9235 12.9517V18.4585H40.4539V5.0498H41.5642L47.2409 11.8934L52.9176 5.0498H53.9984Z" fill="#4299FF"/>
<path d="M56.671 5.29688H60.1292V15.3669H65.6355V18.4584H56.671V5.29688Z" fill="#4299FF"/>
<path d="M74.9725 17.8003C73.9012 17.2245 73.0034 16.3779 72.3703 15.3468C71.73 14.3001 71.399 13.0968 71.4144 11.8733C71.4019 10.6538 71.733 9.45494 72.3703 8.41107C73.0007 7.37329 73.8987 6.52024 74.9725 5.93963C76.0858 5.33747 77.3367 5.02803 78.6056 5.04092C79.8685 5.02088 81.1129 5.3425 82.2046 5.97108C83.2673 6.59051 84.1326 7.49277 84.7023 8.57508L82.0593 10.35C81.1994 8.9136 80.0436 8.19538 78.592 8.19538C77.938 8.18138 77.2915 8.33625 76.7164 8.64473C76.1692 8.94669 75.7209 9.39731 75.4244 9.94336C75.1097 10.5396 74.9534 11.2053 74.9702 11.8778C74.9702 12.9697 75.3093 13.8512 75.9875 14.5223C76.3306 14.8577 76.7396 15.1203 77.1889 15.2938C77.6385 15.4673 78.119 15.548 78.601 15.5311C80.0513 15.5311 81.2071 14.8121 82.0683 13.3742L84.7114 15.1514C84.1408 16.2331 83.2757 17.1352 82.2137 17.7554C81.1174 18.3824 79.8694 18.7031 78.6033 18.6833C77.3363 18.7033 76.0856 18.3992 74.9725 17.8003Z" fill="#4299FF"/>
<path d="M86.6801 5.29688H90.1497V15.3669H95.656V18.4584H86.6801V5.29688Z" fill="#4299FF"/>
<path d="M103.642 18.6987C102.384 18.7106 101.144 18.4011 100.043 17.8C98.9707 17.2254 98.0724 16.3785 97.4407 15.3465C96.7997 14.2999 96.4678 13.0967 96.4825 11.873C96.4709 10.6533 96.8027 9.45442 97.4407 8.41075C98.0697 7.37192 98.9682 6.5186 100.043 5.93931C101.151 5.35089 102.39 5.04297 103.648 5.04297C104.906 5.04297 106.144 5.35089 107.252 5.93931C108.333 6.5179 109.238 7.371 109.875 8.41075C110.519 9.45235 110.854 10.652 110.842 11.873C110.857 13.0979 110.522 14.302 109.875 15.3465C109.235 16.3794 108.33 17.2261 107.252 17.8C106.146 18.4004 104.903 18.7098 103.642 18.6987ZM105.518 15.0859C106.064 14.7854 106.515 14.3394 106.819 13.7985C107.144 13.2089 107.308 12.5449 107.293 11.873C107.305 11.205 107.142 10.5454 106.819 9.95877C106.515 9.4162 106.065 8.96863 105.518 8.66689C104.941 8.36584 104.299 8.2085 103.648 8.2085C102.996 8.2085 102.354 8.36584 101.778 8.66689C101.235 8.97132 100.791 9.42157 100.497 9.96552C100.183 10.5547 100.027 11.2137 100.043 11.8798C100.043 12.9852 100.379 13.8734 101.051 14.5444C101.395 14.8813 101.805 15.1448 102.257 15.3183C102.708 15.4918 103.19 15.5718 103.674 15.5532C104.319 15.5588 104.954 15.3977 105.518 15.0859Z" fill="#4299FF"/>
<path d="M115.592 17.9799C114.709 17.5124 113.98 16.8025 113.494 15.9353C112.976 14.9965 112.716 13.94 112.738 12.8707V5.29688H116.215V13.1313C116.198 13.4564 116.25 13.7812 116.367 14.0852C116.485 14.3892 116.665 14.6658 116.896 14.8973C117.379 15.316 117.999 15.5468 118.641 15.5468C119.283 15.5468 119.903 15.316 120.386 14.8973C120.617 14.6657 120.797 14.3891 120.914 14.0851C121.031 13.7811 121.083 13.4563 121.067 13.1313V5.29688H124.534V12.8707C124.558 13.9377 124.294 14.9917 123.769 15.9241C123.273 16.7875 122.544 17.4964 121.662 17.9709C120.736 18.4638 119.698 18.7144 118.646 18.6988C117.583 18.719 116.532 18.4716 115.592 17.9799Z" fill="#4299FF"/>
<path d="M127.098 5.29681H131.737C133.019 5.27802 134.288 5.55089 135.447 6.09441C136.516 6.59645 137.419 7.38893 138.049 8.37937C138.696 9.41973 139.026 10.6227 138.998 11.8439C139.022 13.0639 138.693 14.2651 138.049 15.3061C137.418 16.306 136.516 17.1114 135.447 17.6315C134.294 18.1951 133.023 18.4785 131.737 18.4583H127.098V5.29681ZM131.716 15.3758C132.701 15.4133 133.662 15.0737 134.4 14.4277C135.097 13.7971 135.446 12.9358 135.447 11.8439C135.447 10.725 135.101 9.87346 134.409 9.2893C133.718 8.70515 132.82 8.41233 131.716 8.41082H130.567V15.3758H131.716Z" fill="#4299FF"/>
<g clip-path="url(#clip0_1_17431)">
<path d="M16.2143 0.166674C14.1945 0.302971 12.3505 1.19186 11.1434 2.61112C10.367 3.52371 9.86962 4.54001 9.56786 5.83334C9.56027 5.87038 9.54663 5.89112 9.53449 5.88815C9.52388 5.88519 9.42834 5.86445 9.32371 5.84075C9.03256 5.77556 8.74899 5.72667 8.44115 5.69112C8.20308 5.66297 8.08176 5.65704 7.6238 5.65704C6.96416 5.65556 6.61387 5.68667 6.06644 5.79778C4.15575 6.18445 2.53166 7.23334 1.46865 8.76667C0.373792 10.3445 -0.00683019 12.3267 0.414735 14.2496C0.865112 16.3163 2.20411 18.1059 4.07841 19.1504C4.30587 19.2763 4.46358 19.343 4.68195 19.4007L4.85633 19.4482L8.71866 19.4526L12.5795 19.4556L12.6674 19.4245C12.8373 19.3622 12.9768 19.1859 12.9995 19.0037C13.0116 18.9148 12.9783 18.7667 12.9298 18.6896C12.8888 18.6259 10.0728 15.777 9.98032 15.7059C9.8393 15.5963 9.9879 15.6037 7.74057 15.6037H5.72221L5.57815 15.497C5.17175 15.1948 4.81994 14.7652 4.57428 14.2778C4.33317 13.7948 4.22095 13.3578 4.20124 12.8259C4.15575 11.5326 4.82601 10.4348 6.00881 9.8689C6.8474 9.46741 7.84975 9.40371 8.74596 9.69112C8.86727 9.73112 9.04166 9.79778 9.13416 9.83927L9.30248 9.91778L13.7183 14.4926C16.6147 17.4956 18.169 19.0941 18.2357 19.1445C18.3601 19.2348 18.5375 19.3267 18.6815 19.3756C18.9333 19.4585 18.6649 19.4541 23.2596 19.4556C27.4556 19.457 27.4995 19.457 27.7346 19.4274C28.6733 19.3074 29.5103 18.9682 30.2488 18.4096C30.5733 18.1652 30.9858 17.7385 31.2224 17.4037C31.9366 16.3963 32.1929 15.177 31.9457 13.9667C31.8016 13.257 31.465 12.4822 31.0874 11.9889C31.054 11.9445 28.8173 9.60223 26.1181 6.78593L21.2109 1.66445L21.0062 1.51927C19.9569 0.777044 18.7104 0.319267 17.3896 0.188896C17.103 0.160748 16.4827 0.148895 16.2143 0.166674ZM17.153 4.04223C17.5882 4.10149 17.9916 4.23482 18.3828 4.45112C18.4844 4.5089 18.5815 4.57556 18.633 4.62593C18.68 4.67038 20.7909 6.87334 23.3263 9.51927C27.3934 13.7652 27.9408 14.343 27.9787 14.4215C28.0652 14.6082 28.1 14.7933 28.0788 14.9504C28.0455 15.1859 27.8377 15.4052 27.5344 15.5252C27.3252 15.6067 27.5268 15.6037 23.7282 15.6037L20.2177 15.6022L16.8967 12.1607L13.5758 8.71927L13.5318 8.59482C13.4802 8.44519 13.4271 8.21853 13.3908 7.9889C13.3544 7.7563 13.3544 7.12223 13.3908 6.88815C13.5454 5.9089 13.9867 5.12371 14.6509 4.64964C15.1756 4.27482 15.7503 4.07186 16.4645 4.0126C16.5889 4.00223 16.9832 4.01853 17.153 4.04223Z" fill="#4299FF"/>
</g>
<defs>
<clipPath id="clip0_1_17431">
<rect width="32.6268" height="20" fill="white"/>
</clipPath>
</defs>
</svg>
